<?xml version="1.0" standalone="no"?>
<!DOCTYPE svg PUBLIC "-//W3C//DTD SVG 20010904//EN"
 "http://www.w3.org/TR/2001/REC-SVG-20010904/DTD/svg10.dtd">
<svg version="1.0" xmlns="http://www.w3.org/2000/svg"
 width="512.000000pt" height="512.000000pt" viewBox="0 0 512.000000 512.000000"
 preserveAspectRatio="xMidYMid meet">

<g transform="translate(0.000000,512.000000) scale(0.100000,-0.100000)"
fill="#000000" stroke="none">
<path d="M0 2560 l0 -2560 2560 0 2560 0 0 2560 0 2560 -2560 0 -2560 0 0
-2560z m2855 2244 c128 -15 206 -25 355 -45 163 -23 451 -101 595 -162 69 -30
210 -109 296 -167 142 -97 330 -313 408 -470 18 -36 36 -69 41 -75 12 -16 77
-175 99 -245 59 -185 103 -390 122 -575 11 -104 24 -221 30 -260 12 -89 12
-391 0 -480 -6 -39 -19 -156 -30 -260 -19 -185 -63 -390 -122 -575 -22 -70
-87 -229 -99 -245 -5 -5 -23 -39 -41 -75 -78 -157 -266 -373 -408 -470 -86
-58 -227 -137 -296 -167 -144 -61 -432 -139 -595 -162 -360 -50 -483 -62 -650
-62 -167 0 -290 12 -650 62 -163 23 -451 101 -595 162 -69 30 -210 109 -296
167 -142 97 -330 313 -408 470 -18 36 -36 70 -41 75 -12 16 -77 175 -99 245
-59 185 -103 390 -122 575 -11 104 -24 221 -30 260 -12 89 -12 391 0 480 6 39
19 156 30 260 19 185 63 390 122 575 22 70 87 229 99 245 5 6 23 39 41 75 78
157 266 373 408 470 211 143 390 218 686 288 124 29 176 38 360 62 44 5 118
15 165 21 202 27 410 28 625 3z"/>
</g>
</svg>
